<svg xmlns="http://www.w3.org/2000/svg" viewBox="0 0 1200 1200" fill="#00ffff">
 <path d="m296.34 705.52h-196.08c5.625 108.84 47.25 213.79 118.08 297.47 17.812 21.891 54.047 23.344 73.406 2.8125l68.297-68.016c17.719-17.719 18.984-47.25 3.0938-66.984-38.25-47.25-61.594-105-66.75-165.28z"/>
 <path d="m770.68 397.03c45.844-24.094 69.234-60.188 116.25-40.547l48-48.234c-85.969-77.766-194.06-122.68-309.05-128.58 0.28125 13.312 0 196.36 0 196.36 42.609 3.6094 83.438 15.891 120.37 36.188 8.4844-5.3906 16.688-10.5 24.375-15.141z"/>
 <path d="m574.6 179.63c-115.27 5.9062-223.55 50.812-309.56 128.58 9.8906 9.0938 138.61 138.61 138.61 138.61 48.234-41.062 107.53-65.438 170.95-70.828 0 0-0.046874-182.26 0-196.36z"/>
 <path d="m903.66 705.52c-5.1562 60.328-28.5 118.08-66.75 165.28-15.891 19.781-14.625 49.266 3.0938 66.984l68.297 68.016c19.312 20.531 55.594 19.078 73.406-2.8125 70.828-83.672 112.41-188.16 118.08-297.47-13.031 0.28125-196.08 0-196.08 0z"/>
 <path d="m925.74 437.58c-11.297 22.312-24.469 40.031-43.125 71.344-4.875 7.6875-10.031 15.891-15.422 24.375 20.531 36.984 32.859 78.047 36.469 120.89 13.453-0.1875 196.36 0 196.36 0-5.9062-115.27-50.812-223.55-128.86-309.56-10.875 10.641-36.609 36.797-47.766 47.719 6.9375 14.109 8.4844 30.562 2.2969 45.188z"/>
 <path d="m296.34 654.19c5.3906-63.375 29.766-122.68 70.828-170.95 0 0-128.9-128.9-138.32-138.84-77.766 85.734-122.95 194.06-128.86 309.79 13.031-0.23438 196.36 0 196.36 0z"/>
 <path d="m846.94 468.89 3.8438-3.8438c-0.23438-0.23438-0.51562-0.75-1.0312-1.0312 15.656-24.656 25.922-41.344 27.469-44.156 7.5938-10.781-6.5625-24.984-17.438-17.719-83.672 51.891-303.28 188.29-335.21 219.19-85.547 90.281 43.266 219.47 133.74 133.45 24.938-25.359 133.13-196.31 188.68-285.94z"/>
</svg>
