<svg xmlns="http://www.w3.org/2000/svg" viewBox="0 0 1200 1200" fill="#00ffff">
 <path d="m294 561.6c-2.3984-32.398-6-91.199-6-91.199l-12-246c0-9.6016 7.1992-18 16.801-19.199 20.398-1.1992 54 3.6016 79.199 24l18-153.6c0-4.8008 2.3984-9.6016 7.1992-12 2.4023-2.3984 7.1992-3.5977 12-3.5977 34.801 3.6016 100.8 32.398 96 109.2v10.801l68.398-110.4c2.3984-4.8008 7.1992-7.1992 13.199-8.3984 4.8047-1.2031 9.6016 1.1953 13.203 4.7969 3.6016 2.3984 74.398 69.602 48 140.4-9.6016 26.398-45.602 94.801-48 98.398 0 0 0 1.1992-1.1992 1.1992l-49.199 79.199c46.801-8.3984 175.2 1.1992 201.6 22.801 22.801 19.199 87.602 91.199 90 94.801 1.1992 1.1992 2.3984 3.6016 3.6016 4.8008 4.8008-2.3984 9.6016-4.8008 14.398-7.1992 6-2.3984 12-2.3984 18 0 8.3984 3.6016 20.398 9.6016 46.797 171.6v3.6016c0 3.6016-2.3984 80.398-97.199 176.4-82.801 84-157.2 222-184.8 278.4-3.6016 6-9.6016 9.6016-15.602 9.6016-2.3984 0-6-1.1992-8.3984-2.3984-8.3984-4.8008-12-15.602-8.3984-24 36-70.801 108-202.8 192-286.8 76.801-78 86.398-141.6 87.602-151.2-8.3984-51.602-20.398-110.4-27.602-136.8-49.199 26.398-48 46.801-45.602 76.801 1.1992 27.602 3.6016 62.398-33.602 102-58.801 61.199-114 91.199-115.2 92.398-4.8008 2.3984-10.801 2.3984-16.801 0l-126-60c-4.8008-2.3984-8.3984-6-9.6016-10.801l-24-85.199c-1.1992-3.6016-1.1992-8.3984 1.1992-12l51.602-111.6c1.1992-2.3984 2.3984-3.6016 3.6016-4.8008 31.199-30 109.2-68.398 189.6-1.1992 10.801 8.3984 20.398 12 31.199 10.801 14.398-2.3984 27.602-12 37.199-21.602-22.801-25.199-61.199-67.199-75.602-79.199-12-9.6016-136.8-24-172.8-15.602-10.801 9.6016-42 42-74.398 75.602l-1.1992 1.1992c-20.398 21.602-40.801 43.199-57.602 62.398-7.1992 7.1992-18 7.1992-25.199 1.1992-7.1992-7.1992-7.1992-18-1.1992-25.199 6-6 30-32.398 57.602-62.398l115.2-186c3.6016-6 37.199-70.801 45.602-93.602 12-31.199-8.3984-66-24-85.199l-116.4 188.4s0 1.1992-1.1992 1.1992c-31.199 43.199-66 92.398-69.602 100.8-2.3984 4.8008-9.6016 21.602-19.199 42v1.1992s0 1.1992-1.1992 1.1992c-16.801 34.801-40.801 87.602-45.602 99.602-8.3984 22.801-24 81.602-26.398 122.4 0 10.801 6 50.398 12 91.199 18 120 46.801 302.4 16.801 373.2-3.6055 8.4062-9.6055 12.008-16.805 12.008-2.3984 0-4.8008 0-7.1992-1.1992-9.6016-3.6016-13.199-14.398-9.6016-24 26.398-61.199-2.3984-244.8-19.199-354-8.3984-55.199-13.199-85.199-12-98.398 1.1992-32.402 10.801-72.004 18-100.8zm477.6 9.5977c-21.602 2.3984-40.801-3.6016-60-19.199-67.199-56.398-127.2-12-139.2-2.3984l-48 102 20.398 70.801 110.4 52.801c16.801-9.6016 56.398-37.199 99.602-81.602 26.398-27.602 25.199-49.199 22.801-74.398-1.1992-18-1.1992-33.602 3.6016-49.199-2.4023-0.003906-6.0039 1.1953-9.6016 1.1953zm-326.4-294 21.602-34.801c1.1992-24 2.3984-57.602 3.6016-74.398 2.3984-43.199-26.398-61.199-46.801-67.199l-20.398 181.2v2.3984l-4.8008 42s-1.1992 9.6016-2.3984 22.801c16.797-27.598 38.395-57.598 49.195-72zm-94.801 151.2c2.3984-21.602 9.6016-103.2 10.801-106.8l4.8008-39.602c-9.6016-28.801-36-37.199-52.801-39.602l10.801 225.61s0 6 1.1992 15.602c7.1992-16.801 16.801-36 25.199-55.203z"/>
</svg>
