<svg xmlns="http://www.w3.org/2000/svg" viewBox="0 0 1200 1200" fill="#00ffff">
 <path d="m907.55 296.06-307.45-56.062-307.69 56.062-1.0781 6c-1.0781 5.3906-94.688 539.06 306.24 657.24l2.5312 0.70312 2.3906-0.70312c400.69-118.31 307.08-651.94 306.14-657.24zm-307.55 493.18c-104.39 0-189.37-84.938-189.37-189.37 0-104.39 84.938-189.37 189.37-189.37 104.39 0 189.37 84.938 189.37 189.37 0 104.39-84.938 189.37-189.37 189.37z"/>
 <path d="m468 709.69c22.781 27.375 54 47.391 89.625 56.531-11.625-13.781-21.609-33.141-29.156-56.531z"/>
 <path d="m546.71 709.69c13.688 39.141 33.844 62.062 53.297 62.062s39.609-22.922 53.297-62.062z"/>
 <path d="m642.37 766.08c35.531-9.1406 66.844-29.156 89.625-56.531h-60.469c-7.4531 23.391-17.391 42.703-29.156 56.531z"/>
 <path d="m676.69 692.06h67.922c15.609-24.375 25.219-52.781 26.625-83.391h-84.141c-0.60938 30.375-4.3125 58.547-10.547 83.391z"/>
 <path d="m541.45 692.06h117c6.4688-23.625 10.453-51.844 11.156-83.391h-139.22c0.70312 31.547 4.6875 59.766 11.156 83.391z"/>
 <path d="m512.86 608.63h-84.141c1.5469 30.609 11.156 59.062 26.625 83.391h67.922c-6.2344-24.844-9.9375-53.156-10.547-83.391z"/>
 <path d="m523.31 507.71h-67.922c-15.609 24.375-25.219 52.781-26.625 83.391h84.141c0.60938-30.375 4.3125-58.547 10.547-83.391z"/>
 <path d="m658.45 507.71h-117c-6.4688 23.625-10.453 51.844-11.156 83.391h139.22c-0.70312-31.547-4.6875-59.766-11.156-83.391z"/>
 <path d="m687.14 591.14h84.141c-1.5469-30.609-11.156-59.062-26.625-83.391h-67.922c6.2344 24.844 9.9375 53.156 10.547 83.391z"/>
 <path d="m732 490.08c-22.781-27.375-54-47.391-89.625-56.531 11.625 13.781 21.609 33.141 29.156 56.531z"/>
 <path d="m653.29 490.08c-13.688-39.141-33.844-62.062-53.297-62.062s-39.609 22.922-53.297 62.062z"/>
 <path d="m557.63 433.69c-35.531 9.1406-66.844 29.156-89.625 56.531h60.469c7.4531-23.391 17.391-42.703 29.156-56.531z"/>
</svg>
