<svg xmlns="http://www.w3.org/2000/svg" viewBox="0 0 1200 1200" fill="#00ffff">
 <path d="m613.32 78.68h-0.054687c-70.094 0-137.38 12.039-199.91 34.129l44.555 215.84c37.43-10.387 76.762-15.828 117.33-15.828l1.6094 0.019531c21.277-0.015625 42.215 1.5742 62.715 4.5898l77.859-229.81c-33.73-5.918-68.426-8.9414-103.84-8.9414zm-241.79 50.719-0.007813 0.003906c-78 34.348-147.31 84.812-203.72 147.16l109.14 152.4c40.359-36.742 87.156-66.117 138.39-86.148zm311.91 196.84 0.011718 0.003907c58.164 14.723 111.92 41.117 158.77 76.633l0.003906 0.003906c12.988 9.8438 25.449 20.391 37.324 31.586l223.78-103.08c-8.7188-12.387-17.973-24.391-27.652-36.02l-0.007812-0.011719c-80.016-96.16-189.46-166.88-314.48-198.45zm-545.02-14.551-0.007812 0.007812c-44.758 57.656-79.234 123.75-100.68 195.46l127.96 75.719c20.129-45.043 47.055-86.16 79.414-121.99zm474.3 329.16h0.011718c20.664 0 37.41 16.758 37.41 37.426 0 20.672-16.754 37.453-37.434 37.453h-0.011719c-20.676-0.015625-37.434-16.773-37.434-37.449s16.754-37.43 37.434-37.43zm-586.48-88.879-0.003907 0.019532c-8.918 41.023-13.609 83.773-13.609 127.61-0.003907 15.434 0.58203 30.73 1.7227 45.875l111.55 16.738c2.8945-40.859 10.926-80.227 23.43-117.42zm1138.4-217.48h-0.035156c-3.8164 0-7.2969 1.2852-11.125 3.0469l-504.42 232.34c-11.418-3.832-23.645-5.9062-36.352-5.9062h-0.11328c-63.09-0.019531-114.18 51.215-114.18 114.3 0 63.117 51.16 114.27 114.27 114.32h0.03125c55.512-0.035156 101.73-39.602 112.07-92.066 0.003906-0.007813 0.023438-0.023438 0.023438-0.023438 4.0547-2.9141 450.89-324.45 450.89-324.45 9.2188-6.6367 14.156-18.09 9.2852-28.664-2.6289-5.7109-7.3828-9.7695-12.895-11.672l-0.0625-0.019532c-2.3555-0.83594-4.8438-1.1992-7.332-1.1992zm-1145.1 436.74v0.015625c7.0195 45.801 19.25 90.055 36.062 131.97l81.16-19.371c-7.1484-31.281-11.25-63.613-11.965-96.832zm54.41 173.18 0.007813 0.015625c16.211 32.945 35.348 64.211 57.082 93.434l47.016-41.984c-11.5-22.227-21.324-45.336-29.289-69.344zm84.891 128.11v0.019531c12.184 14.059 24.938 27.582 38.363 40.48l0.015625 0.015625c4.5508 4.9453 11.086 8.0742 18.355 8.0742h0.003907c13.754-0.015625 24.902-11.164 24.898-24.918v-0.015625c0-6.0586-2.1602-11.605-5.75-15.922l-0.21484-0.23828c-12.023-14.422-23.254-29.426-33.527-45.168z"/>
</svg>
