<svg xmlns="http://www.w3.org/2000/svg" viewBox="0 0 1200 1200" fill="#00ffff">
 <path d="m600.05 502.78c60.281 0 109.17 48.938 109.17 109.27 0 63.984-34.688 145.13-109.17 145.13-76.781 0-109.27-84.797-109.27-145.13 0-60.281 48.891-109.27 109.27-109.27zm202.4 396.89c0-59.859-52.688-108.8-117.14-108.8h-170.63c-64.453 0-117.14 48.938-117.14 108.8v131.95c0 26.625 21.75 48.375 48.375 48.375h308.16c26.625 0 48.375-21.75 48.375-48.375zm-499.82-342.84c-54.422 0-98.531 44.109-98.531 98.531s29.297 130.92 98.531 130.92c67.219 0 98.531-73.219 98.531-130.92 0-54.422-44.109-98.531-98.531-98.531zm594.74 0c-54.422 0-98.531 44.109-98.531 98.531 0 57.703 31.312 130.92 98.531 130.92 69.234 0 98.531-76.5 98.531-130.92s-44.109-98.531-98.531-98.531zm-522.19-227.63v-20.156c-0.79688 1.1719-1.7344 2.3438-2.8125 3.375l-70.219 69.609c-4.5469 4.5-10.453 6.75-16.359 6.75-5.8594 0-11.672-2.2031-16.172-6.5625l-36.609-35.578c-9.1875-8.9531-9.4219-23.625-0.46875-32.859 8.9531-9.1875 23.625-9.4219 32.859-0.46875l20.25 19.688 54.047-53.531c9.0938-9.0469 23.812-8.9531 32.859 0.14062 1.0312 1.0312 1.875 2.1094 2.6719 3.2344v-59.156h-191.76c-16.5 0-29.953 13.5-29.953 29.953v154.13c0 16.5 13.5 30.047 29.953 30.047h81.516l37.641 64.969 37.688-64.969h81.469c15.844 0 28.969-12.562 29.953-28.172-42.562-2.1094-76.547-37.359-76.547-80.438zm671.34-75.516v154.13c0 16.5-13.5 30.047-29.953 30.047h-81.469l-37.734 64.922-37.688-64.969h-81.469c-16.5 0-30.047-13.547-30.047-30.047v-1.0312c33.938-9.4688 58.922-40.641 58.922-77.531v-105.52h209.44c16.5 0.046875 30 13.5 30 30zm-79.219 25.922c-9.0469-9.1406-23.719-9.1875-32.859-0.14062l-54.094 53.578-20.25-19.688c-9.1875-8.9531-23.906-8.7188-32.859 0.46875s-8.7188 23.906 0.46875 32.859l36.609 35.578c4.5 4.3594 10.359 6.5625 16.172 6.5625 5.9062 0 11.812-2.25 16.359-6.7031l70.266-69.609c9.1406-9.0938 9.2344-23.812 0.1875-32.906zm-206.68-125.48v175.08c0 18.75-15.328 34.078-34.125 34.078h-92.531l-42.844 73.828-42.844-73.828h-92.578c-18.75 0-34.078-15.328-34.078-34.078v-175.08c0-18.797 15.328-34.125 34.078-34.125h270.79c18.797 0 34.125 15.328 34.125 34.125zm-136.64 87 22.5-22.5c9.0938-9.0938 9.0938-23.766 0-32.859s-23.766-9.0938-32.859 0l-22.5 22.5-22.5-22.5c-9.0938-9.0938-23.766-9.0938-32.859 0s-9.0938 23.766 0 32.859l22.5 22.5-22.5 22.5c-9.0938 9.0938-9.0938 23.766 0 32.859s23.766 9.0938 32.859 0l22.5-22.5 22.5 22.5c4.5469 4.5469 10.453 6.7969 16.406 6.7969 5.9531 0 11.906-2.25 16.406-6.7969 9.0938-9.0938 9.0938-23.766 0-32.859zm-272.9 790.5v-131.95c0-30.516 9.375-58.969 25.453-83.016h-150.89c-58.078 0-105.61 44.156-105.61 98.109v121.6c0 24.047 19.594 43.641 43.641 43.641h200.76c-8.4844-14.156-13.359-30.703-13.359-48.375zm623.26-214.97h-150.94c16.078 24.047 25.453 52.5 25.453 83.016v131.95c0 17.672-4.875 34.219-13.312 48.375h200.81c24 0 43.594-19.594 43.594-43.641v-121.6c0-53.953-47.531-98.109-105.61-98.109z"/>
</svg>
